<?xml version="1.0" encoding="utf-8"?>
<!-- Generator: Adobe Illustrator 21.1.0, SVG Export Plug-In . SVG Version: 6.00 Build 0)  -->
<svg version="1.1" id="Layer_1" xmlns="http://www.w3.org/2000/svg" xmlns:xlink="http://www.w3.org/1999/xlink" x="0px" y="0px"
	 viewBox="0 0 116 53.9" style="enable-background:new 0 0 116 53.9;" xml:space="preserve">
<style type="text/css">
	.st0{fill:#FFFFFF;}
</style>
<path class="st0" d="M4.5,12.3l3.2-3.2c1-1.1,2.1-1.2,3.3,0l42.4,42.4c1.6,1.6,3.1,2.4,4.6,2.4s3-0.8,4.6-2.4L105,9.1
	c1.1-1.1,2.3-1.1,3.3,0l3.2,3.2l4.5-4.5l-5.4-5.4c-3.2-3.2-6-3.2-9.2,0L58.9,44.8c-0.3,0.3-0.6,0.5-1,0.7c-0.3-0.1-0.7-0.3-1-0.7
	L14.6,2.4c-3.2-3.2-6-3.2-9.2,0L0,7.8L4.5,12.3z"/>
</svg>
