<?xml version="1.0" encoding="utf-8"?>
<!-- Generator: Adobe Illustrator 21.1.0, SVG Export Plug-In . SVG Version: 6.00 Build 0)  -->
<svg version="1.1" id="Layer_1" xmlns="http://www.w3.org/2000/svg" xmlns:xlink="http://www.w3.org/1999/xlink" x="0px" y="0px"
	 viewBox="0 0 429.1 41.2" style="enable-background:new 0 0 429.1 41.2;" xml:space="preserve">
<style type="text/css">
	.st0{fill:#C32240;}
</style>
<g>
	<g>
		<path id="v_9_" class="st0" d="M32.5,8.1c-2.2,0-3.1,1-3.1,3.1v9v2.9c0,4.3-2.7,6.7-6.8,6.7h-0.4v-8.1h-6v8.1h-0.4
			c-4.1,0-6.8-2.5-6.8-6.7v-2.9v-9C9,9,8.1,8.1,5.9,8.1H0v5.1h2c0.6,0,1,0.4,1,1v6.1v3.1C3,30.5,8,35.5,15.7,35.5h0.4v5.1h6v-5.1
			h0.4c7.7,0,12.8-5,12.8-12.1v-3.1v-6.1c0-0.6,0.4-1,1-1h2V8.1H32.5z"/>
		<g>
			<path class="st0" d="M58.8,14.4c-0.3-0.8-0.6-1-1.4-1h-0.8V8.3h3.8c2.3,0,3.1,0.6,3.8,2.6l6.2,18c0.6,1.8,1.2,4.7,1.2,4.7h0.1
				c0,0,0.6-2.9,1.2-4.7l6.2-18c0.7-2,1.5-2.6,3.8-2.6h3.8v5.1h-0.9c-0.8,0-1.1,0.2-1.4,1l-9.6,26.3h-6.3L58.8,14.4z"/>
			<path class="st0" d="M88.5,35.6h0.7c0.8,0,1.1-0.2,1.4-1l9.6-26.3h6.2l9.6,26.3c0.3,0.8,0.6,1,1.4,1h0.7v5.1h-3.6
				c-2.3,0-3.1-0.6-3.8-2.6l-2-5.6H97.9l-2,5.6c-0.7,2-1.5,2.6-3.8,2.6h-3.6V35.6z M107.5,27.4l-2.8-8.1c-0.6-1.8-1.3-4.8-1.3-4.8
				h-0.1c0,0-0.7,3-1.3,4.8l-2.8,8.1H107.5z M104.6,0h5.6l-4.8,6.2h-4.2L104.6,0z"/>
			<path class="st0" d="M125.8,32c0,0,3.3,3.8,7.8,3.8c2.5,0,4.6-1.3,4.6-3.8c0-5.5-15.2-5.1-15.2-15.1c0-5.2,4.6-9.1,10.8-9.1
				c3.8,0,9.6,1.8,9.6,6.4v3h-5.4v-1.5c0-1.5-2.1-2.5-4.3-2.5c-2.7,0-4.7,1.4-4.7,3.5c0,5.5,15.2,4.4,15.2,15c0,5.1-4,9.5-10.7,9.5
				c-7.1,0-11.1-5-11.1-5L125.8,32z M127.2,0h4.3l2.3,3.7h0.1l2.3-3.7h4.4l-4.2,6.2h-4.9L127.2,0z"/>
			<path class="st0" d="M167.1,13.4h-3V8.3h14.8c6.1,0,10.3,4.2,10.3,10.5s-4.2,10.7-10.3,10.7H173v11.2h-6V13.4z M177.8,24.4
				c3.4,0,5.3-2.2,5.3-5.6c0-3.3-1.9-5.5-5.2-5.5H173v11H177.8z"/>
			<path class="st0" d="M197.2,32c0,0,3.3,3.8,7.8,3.8c2.5,0,4.6-1.3,4.6-3.8c0-5.5-15.2-5.1-15.2-15.1c0-5.2,4.6-9.1,10.8-9.1
				c3.8,0,9.6,1.8,9.6,6.4v3h-5.4v-1.5c0-1.5-2.1-2.5-4.3-2.5c-2.7,0-4.7,1.4-4.7,3.5c0,5.5,15.2,4.4,15.2,15c0,5.1-4,9.5-10.7,9.5
				c-7.1,0-11.1-5-11.1-5L197.2,32z"/>
			<path class="st0" d="M230.7,26.5L223,14.5c-0.6-0.9-0.9-1.1-1.9-1.1h-1V8.3h3c2.1,0,3,0.3,4.2,2.4l4.3,7.1c1.1,1.9,2,3.6,2,3.6
				h0.1c0,0,0.8-1.7,2-3.6l4.2-7.1c1.2-2,2.1-2.4,4.2-2.4h3v5.1h-1c-1,0-1.3,0.2-1.9,1.1l-7.6,12.1v14.1h-6V26.5z"/>
			<path class="st0" d="M267.7,7.8c4.1,0,12.2,1.7,12.2,7.2v3.6h-5.4v-1.8c0-2.4-3.9-3.5-6.7-3.5c-5.8,0-10.3,4.1-10.3,10.9
				c0,6.3,4.6,11.4,10.5,11.4c6.1,0,9.8-4.3,9.8-4.3l3.1,4.3c0,0-4.7,5.6-13,5.6c-9.9,0-16.6-7.4-16.6-17
				C251.3,14.9,258.3,7.8,267.7,7.8z"/>
			<path class="st0" d="M289,14.4c0-0.6-0.4-1-1-1h-2V8.3h5.8c2.2,0,3.1,1,3.1,3.1V22h14.2V11.4c0-2.1,1-3.1,3.1-3.1h5.8v5.1h-2
				c-0.6,0-1,0.4-1,1v26.3h-6V27.1h-14.2v13.6h-6V14.4z"/>
			<path class="st0" d="M323.7,35.6h3.2V13.4h-3.2V8.3h12.1v5.1h-3.2v22.2h3.2v5.1h-12.1V35.6z"/>
			<path class="st0" d="M340.3,35.6h0.7c0.8,0,1.1-0.2,1.4-1L352,8.3h6.2l9.6,26.3c0.3,0.8,0.6,1,1.4,1h0.7v5.1h-3.6
				c-2.3,0-3.1-0.6-3.8-2.6l-2-5.6h-10.9l-2,5.6c-0.7,2-1.5,2.6-3.8,2.6h-3.6V35.6z M359.2,27.4l-2.8-8.1c-0.6-1.8-1.3-4.8-1.3-4.8
				h-0.1c0,0-0.7,3-1.3,4.8l-2.8,8.1H359.2z"/>
			<path class="st0" d="M380.7,13.4h-5c-0.6,0-1,0.4-1,1v2h-5.2v-5.1c0-2.1,0.7-2.9,2.9-2.9h22.5c2.2,0,2.9,0.8,2.9,2.9v5.1h-5.2v-2
				c0-0.6-0.4-1-1-1h-5v27.3h-6V13.4z"/>
			<path class="st0" d="M405.3,13.4h-3V8.3h14.5c5.9,0,10.1,3.6,10.1,9.7c0,5.8-4,8.2-5.4,8.5v0.1c0,0,1,0.5,1.6,1.6l3.1,6.2
				c0.5,1,1.3,1,2.3,1h0.6v5.1H426c-2.4,0-3.5-0.4-4.5-2.4l-4.1-8.1c-0.7-1.3-1.4-1.5-3-1.5h-3v12.1h-6V13.4z M416,23.5
				c3,0,4.8-1.9,4.8-5.1c0-3.2-1.8-5-4.7-5h-4.8v10.1H416z"/>
		</g>
	</g>
</g>
</svg>
