<?xml version="1.0" encoding="utf-8"?>
<!-- Generator: Adobe Illustrator 21.1.0, SVG Export Plug-In . SVG Version: 6.00 Build 0)  -->
<svg version="1.1" id="Layer_1" xmlns="http://www.w3.org/2000/svg" xmlns:xlink="http://www.w3.org/1999/xlink" x="0px" y="0px"
	 viewBox="0 0 38.3 32.5" style="enable-background:new 0 0 38.3 32.5;" xml:space="preserve">
<style type="text/css">
	.st0{fill:#C32240;}
</style>
<path id="v_9_" class="st0" d="M32.5,0c-2.2,0-3.1,1-3.1,3.1v9V15c0,4.3-2.7,6.7-6.8,6.7h-0.4v-8.1h-6v8.1h-0.4
	C11.7,21.7,9,19.2,9,15v-2.9v-9C9,0.9,8.1,0,5.9,0H0v5.1h2c0.6,0,1,0.4,1,1v6.1v3.1c0,7.1,5,12.1,12.7,12.1h0.4v5.1h6v-5.1h0.4
	c7.7,0,12.8-5,12.8-12.1v-3.1V6.1c0-0.6,0.4-1,1-1h2V0H32.5z"/>
</svg>
