<?xml version="1.0" encoding="utf-8"?>
<!-- Generator: Adobe Illustrator 21.1.0, SVG Export Plug-In . SVG Version: 6.00 Build 0)  -->
<svg version="1.1" id="Layer_1" xmlns="http://www.w3.org/2000/svg" xmlns:xlink="http://www.w3.org/1999/xlink" x="0px" y="0px"
	 viewBox="0 0 38.3 32.5" style="enable-background:new 0 0 38.3 32.5;" xml:space="preserve">
<style type="text/css">
	.st0{display:none;fill:#FFDE17;}
	.st1{fill:#FFEFCD;}
</style>
<path id="v_9_" class="st0" d="M23.7,10.7c-0.8,0-1.1,0.3-1.1,1.1v3.1v1c0,1.5-0.9,2.3-2.3,2.3h-0.1v-2.8h-2.1v2.8H18
	c-1.4,0-2.3-0.9-2.3-2.3v-1v-3.1c0-0.8-0.3-1.1-1.1-1.1h-2v1.8h0.7c0.2,0,0.3,0.1,0.3,0.3v2.1v1.1c0,2.4,1.7,4.2,4.4,4.2h0.1v1.8
	h2.1v-1.8h0.1c2.6,0,4.4-1.7,4.4-4.2v-1.1v-2.1c0-0.2,0.1-0.3,0.3-0.3h0.7v-1.8H23.7z"/>
<path class="st1" d="M17.1,21.8c-0.5,0-1.1-0.1-1.6-0.3c-2.7-1.1-4-4.1-2.9-6.8c1.3-3.3,5.1-4.9,8.4-3.6c2,0.8,3.6,2.3,4.4,4.3
	c0.8,2,0.9,4.2,0.1,6.2c0,0.1-0.2,0.2-0.3,0.1l-3.1-0.9c-0.1,0-0.2-0.2-0.2-0.3c0-0.1,0.2-0.2,0.3-0.2l2.9,0.9
	c0.7-1.8,0.6-3.8-0.2-5.6c-0.8-1.9-2.3-3.3-4.1-4c-3.1-1.2-6.6,0.3-7.8,3.4c-1,2.4,0.2,5.2,2.7,6.2c0.9,0.4,2,0.4,2.9,0
	s1.6-1.1,2-2.1c0.3-0.7,0.3-1.5,0-2.3c-0.3-0.7-0.9-1.3-1.6-1.6c-1.2-0.5-2.5,0.1-3,1.3c-0.4,0.9,0.1,2,1,2.4c0.4,0.1,0.7,0.1,1.1,0
	s0.6-0.4,0.7-0.8c0.2-0.5-0.1-1.2-0.6-1.4c-0.4-0.2-0.9,0-1.1,0.5c-0.1,0.1-0.2,0.2-0.3,0.1c-0.1-0.1-0.2-0.2-0.1-0.3
	c0.3-0.7,1-1,1.7-0.7c0.8,0.3,1.2,1.2,0.9,2c-0.2,0.5-0.5,0.8-1,1c-0.5,0.2-1,0.2-1.4,0c-1.2-0.5-1.7-1.8-1.3-3
	c0.6-1.4,2.2-2.1,3.6-1.6c0.8,0.3,1.5,1,1.9,1.8c0.4,0.8,0.4,1.8,0,2.6c-0.4,1-1.2,1.9-2.3,2.3C18.2,21.7,17.6,21.8,17.1,21.8z"/>
</svg>
