<?xml version="1.0" encoding="utf-8"?>
<!-- Generator: Adobe Illustrator 21.1.0, SVG Export Plug-In . SVG Version: 6.00 Build 0)  -->
<svg version="1.1" id="Layer_1" xmlns="http://www.w3.org/2000/svg" xmlns:xlink="http://www.w3.org/1999/xlink" x="0px" y="0px"
	 viewBox="0 0 501.4 323.9" style="enable-background:new 0 0 501.4 323.9;" xml:space="preserve">
<style type="text/css">
	.st0{fill:#F1F2F2;}
	.st1{font-family:'Dosis-Light';}
	.st2{font-size:36.7264px;}
	.st3{fill:#FFEFCD;}
	.st4{font-family:'Dosis-Medium';}
	.st5{font-size:62.9596px;}
</style>
<text transform="matrix(1 0 0 1 0 315.1899)" class="st0 st1 st2">ARTETERAPEUTICKÁ DÍLNA</text>
<g>
	<path class="st3" d="M217.3,152.7c-7.2,0-14.5-1.4-21.4-4.1c-36.6-14.6-54.5-56.3-39.9-92.8C174,10.4,225.6-11.8,271,6.3
		C298.2,17.2,319.6,38,331.2,65c11.6,27,12,56.8,1.1,84.1c-0.6,1.5-2.3,2.4-3.9,1.9l-42.1-12.8c-1.7-0.5-2.6-2.3-2.1-4
		c0.5-1.7,2.3-2.6,4-2.1l39.2,11.9c9.1-24.9,8.4-51.9-2.1-76.4c-10.9-25.4-31-45-56.7-55.2c-42-16.8-89.9,3.8-106.7,45.8
		c-13.3,33.3,3,71.2,36.3,84.5c12.7,5.1,26.7,4.9,39.3-0.5c12.6-5.4,22.4-15.4,27.5-28.2c4-10,3.9-21-0.4-31
		c-4.3-9.9-12.1-17.6-22.2-21.6c-16.3-6.5-34.8,1.5-41.2,17.7c-5.1,12.7,1.1,27.1,13.8,32.2c4.8,1.9,10,1.8,14.7-0.2
		c4.7-2,8.3-5.8,10.2-10.5c3-7.5-0.7-16.1-8.2-19.1c-5.7-2.3-12.2,0.5-14.4,6.2c-0.7,1.6-2.5,2.4-4.1,1.8c-1.6-0.7-2.4-2.5-1.8-4.2
		c3.6-9,13.8-13.4,22.7-9.8c10.8,4.3,16.1,16.6,11.8,27.4c-2.5,6.3-7.4,11.3-13.6,14c-6.3,2.7-13.2,2.8-19.6,0.2
		c-16-6.4-23.8-24.5-17.4-40.5c7.8-19.5,30-29.1,49.6-21.3c11.6,4.6,20.7,13.5,25.7,25c4.9,11.5,5.1,24.3,0.5,35.9
		c-5.7,14.3-16.7,25.6-30.9,31.7C232.7,151.1,225,152.7,217.3,152.7z"/>
	<text transform="matrix(1 0 0 1 39.1318 255.4795)" class="st3 st4 st5">STUDIO ULITA</text>
</g>
</svg>
