<?xml version="1.0" encoding="utf-8"?>
<!-- Generator: Adobe Illustrator 21.1.0, SVG Export Plug-In . SVG Version: 6.00 Build 0)  -->
<svg version="1.1" id="Layer_1" xmlns="http://www.w3.org/2000/svg" xmlns:xlink="http://www.w3.org/1999/xlink" x="0px" y="0px"
	 viewBox="0 0 189.3 152.7" style="enable-background:new 0 0 189.3 152.7;" xml:space="preserve">
<style type="text/css">
	.st0{fill:#231F20;}
</style>
<g>
	<path class="st0" d="M66.4,152.7c-7.2,0-14.5-1.4-21.4-4.1C8.4,134-9.5,92.3,5.1,55.8c18-45.4,69.6-67.6,115-49.5
		C147.3,17.2,168.7,38,180.3,65s12,56.8,1.1,84.1c-0.6,1.5-2.3,2.4-3.9,1.9l-42.1-12.8c-1.7-0.5-2.6-2.3-2.1-4s2.3-2.6,4-2.1
		l39.2,11.9c9.1-24.9,8.4-51.9-2.1-76.4c-10.9-25.4-31-45-56.7-55.2C75.7-4.4,27.8,16.2,11,58.2c-13.3,33.3,3,71.2,36.3,84.5
		c12.7,5.1,26.7,4.9,39.3-0.5s22.4-15.4,27.5-28.2c4-10,3.9-21-0.4-31c-4.3-9.9-12.1-17.6-22.2-21.6c-16.3-6.5-34.8,1.5-41.2,17.7
		c-5.1,12.7,1.1,27.1,13.8,32.2c4.8,1.9,10,1.8,14.7-0.2s8.3-5.8,10.2-10.5c3-7.5-0.7-16.1-8.2-19.1c-5.7-2.3-12.2,0.5-14.4,6.2
		c-0.7,1.6-2.5,2.4-4.1,1.8c-1.6-0.7-2.4-2.5-1.8-4.2c3.6-9,13.8-13.4,22.7-9.8C94,79.8,99.3,92.1,95,102.9
		c-2.5,6.3-7.4,11.3-13.6,14c-6.3,2.7-13.2,2.8-19.6,0.2c-16-6.4-23.8-24.5-17.4-40.5c7.8-19.5,30-29.1,49.6-21.3
		c11.6,4.6,20.7,13.5,25.7,25c4.9,11.5,5.1,24.3,0.5,35.9c-5.7,14.3-16.7,25.6-30.9,31.7C81.8,151.1,74.1,152.7,66.4,152.7z"/>
</g>
</svg>
